<mxfile host="app.diagrams.net" modified="2023-05-31T21:43:19.053Z" agent="Mozilla/5.0 (Macintosh; Intel Mac OS X 10_15_7) AppleWebKit/537.36 (KHTML, like Gecko) Chrome/113.0.0.0 Safari/537.36 Edg/113.0.1774.57" version="21.3.6" etag="xDIa5YaQ9U6ZJMcvmKMh" type="github">
  <diagram name="Page-1" id="U5XFCiUfUoDj3t4WbJYy">
    <mxGraphModel>
      <root>
        <mxCell id="0" />
        <mxCell id="1" parent="0" />
      </root>
    </mxGraphModel>
  </diagram>
</mxfile>
